<svg width="1844" height="2024" viewBox="0 0 1844 2024" fill="none" xmlns="http://www.w3.org/2000/svg">
<path fill-rule="evenodd" clip-rule="evenodd" d="M1666.6 1159.75L292.124 957.692C246.903 1247.72 383.031 1534.91 643.5 1677C977.942 1859.44 1390.73 1733.56 1586.96 1373.85C1624.72 1304.63 1651.06 1232.47 1666.6 1159.75Z" fill="white"/>
<path d="M1029.04 838.252C1215.38 871.278 1376.31 928.158 1485.8 992.272C1540.68 1024.41 1580.94 1057.37 1605.36 1088.57C1629.88 1119.89 1635.71 1145.61 1631.09 1165.81C1626.46 1186.02 1609.77 1207.75 1573.39 1228.27C1537.15 1248.72 1485.52 1265.4 1420.79 1276.33C1291.63 1298.15 1118.22 1295.77 931.885 1262.75C745.547 1229.72 584.618 1172.84 475.124 1108.73C420.245 1076.59 379.987 1043.63 355.562 1012.43C331.046 981.109 325.212 955.39 329.837 935.185C334.461 914.979 351.154 893.253 387.535 872.73C423.78 852.283 475.402 835.601 540.139 824.666C669.3 802.85 842.704 805.226 1029.04 838.252Z" fill="#0A0A0A" stroke="white" stroke-width="71"/>
<path fill-rule="evenodd" clip-rule="evenodd" d="M1648.76 525.526L312.026 965.768C257.766 868.931 226.979 758.167 226.979 640.5C226.979 260.804 547.544 0 942.979 0C1297.09 0 1591.17 209.146 1648.76 525.526Z" fill="white"/>
<path d="M1008.76 802.768C826.187 863.645 658.309 909.756 534.611 935.151C472.611 947.88 422.533 955.231 387.547 956.825C373.443 957.468 362.649 957.127 354.901 956.125C360.497 950.674 368.926 943.923 380.594 935.973C409.535 916.251 454.003 892.076 511.236 865.047C625.42 811.122 787.376 747.25 969.946 686.373C1152.52 625.494 1319.37 579.656 1442.03 554.532C1503.52 541.938 1553.07 534.725 1587.65 533.228C1601.65 532.622 1612.32 533.001 1619.96 534.028C1614.47 539.448 1606.15 546.18 1594.59 554.125C1566.04 573.727 1522.1 597.758 1465.39 624.648C1352.24 678.295 1191.32 741.892 1008.76 802.768ZM343.879 953.455C343.89 953.449 344.012 953.508 344.209 953.647C343.965 953.53 343.867 953.46 343.879 953.455ZM347.836 964.524C347.762 964.753 347.7 964.874 347.687 964.876C347.675 964.879 347.712 964.765 347.836 964.524ZM1630.66 536.681C1630.65 536.687 1630.53 536.628 1630.33 536.491C1630.57 536.608 1630.67 536.676 1630.66 536.681ZM1626.77 525.82C1626.84 525.596 1626.9 525.479 1626.91 525.476C1626.92 525.473 1626.88 525.585 1626.77 525.82Z" fill="#0A0A0A" stroke="white" stroke-width="45"/>
<path d="M415.979 1023L448.479 1048L519.479 1059.5L1001.98 920.5L950.479 862L787.001 840.5L519.479 886.5L422.001 932.5L366.479 962.5L376.979 979.5L391.479 998L415.979 1023Z" fill="#0A0A0A"/>
</svg>
